<?xml version="1.0" encoding="UTF-8" standalone="no"?>
<svg
   viewBox="0 0 230 110"
   height="110"
   width="230"
   xml:space="preserve"
   id="svg2"
   version="1.1"
   sodipodi:docname="cnn-logo.svg"
   inkscape:version="1.1.2 (08b2f3d93c, 2022-04-05)"
   xmlns:inkscape="http://www.inkscape.org/namespaces/inkscape"
   xmlns:sodipodi="http://sodipodi.sourceforge.net/DTD/sodipodi-0.dtd"
   xmlns="http://www.w3.org/2000/svg"
   xmlns:svg="http://www.w3.org/2000/svg"
   xmlns:rdf="http://www.w3.org/1999/02/22-rdf-syntax-ns#"
   xmlns:cc="http://creativecommons.org/ns#"
   xmlns:dc="http://purl.org/dc/elements/1.1/"><sodipodi:namedview
     id="namedview11"
     pagecolor="#ffffff"
     bordercolor="#666666"
     borderopacity="1.0"
     inkscape:pageshadow="2"
     inkscape:pageopacity="0.0"
     inkscape:pagecheckerboard="0"
     showgrid="false"
     width="230px"
     inkscape:zoom="3.2628867"
     inkscape:cx="71.102683"
     inkscape:cy="114.77567"
     inkscape:window-width="1842"
     inkscape:window-height="1016"
     inkscape:window-x="78"
     inkscape:window-y="27"
     inkscape:window-maximized="1"
     inkscape:current-layer="g12" /><metadata
     id="metadata8"><rdf:RDF><cc:Work
         rdf:about=""><dc:format>image/svg+xml</dc:format><dc:type
           rdf:resource="http://purl.org/dc/dcmitype/StillImage" /></cc:Work></rdf:RDF></metadata><defs
     id="defs6" /><g
     transform="matrix(1.3333333,0,0,-1.3333333,0,258.66667)"
     id="g10"><g
       transform="scale(0.1)"
       id="g12"><g
         id="g370"
         transform="matrix(0.9742172,0,0,0.98014439,-78.957943,577.30961)"><path
           id="path16"
           style="fill:#e91b32;fill-opacity:1;fill-rule:evenodd;stroke:none"
           d="m 646.469,793.664 c 16.176,1.617 27.5,14.563 27.5,29.125 v 414.141 c 0,153.69 197.367,228.11 302.519,48.53 106.782,-182.8 168.242,-289.573 168.242,-289.573 v 241.043 c 0,153.69 197.37,228.11 302.52,48.53 106.78,-182.8 168.25,-289.573 168.25,-289.573 v 391.493 h 236.2 V 701.453 c 0,-176.336 -207.08,-203.836 -291.2,-63.09 -50.15,82.504 -179.57,296.051 -179.57,296.051 V 701.453 c 1.62,-176.336 -205.46,-203.836 -291.2,-63.09 -50.15,82.504 -177.953,296.051 -177.953,296.051 V 724.105 C 911.777,615.711 848.688,559.09 750.004,559.09 H 521.898 c -584.0074,0 -588.8628,828.29 -8.085,828.29 H 643.23 v -234.57 c 0,0 -35.589,0 -142.363,0 -237.808,0 -263.691,-359.146 16.18,-359.146 h 129.422" /><g
           id="g18"><path
             id="path20"
             style="fill:none;stroke:#ffffff;stroke-width:26.3746;stroke-linecap:butt;stroke-linejoin:miter;stroke-miterlimit:2.6131;stroke-dasharray:none;stroke-opacity:1"
             d="M 1733.6,1387.38 V 716.015 c 0,-42.062 -40.45,-51.769 -61.48,-22.652 0,0 -275.01,441.647 -344.58,556.507 -21.03,29.12 -64.71,19.41 -64.71,-24.26 V 716.015 c 0,-42.062 -38.83,-51.769 -59.85,-22.652 0,0 -276.639,441.647 -346.202,556.507 -21.031,29.12 -64.715,19.41 -64.715,-24.26 V 719.249 c 0,-22.648 -17.793,-42.062 -42.059,-42.062 H 505.719 c -415.758,0 -402.817,592.093 -9.703,592.093 h 150.453" /></g></g></g></g></svg>
