<?xml version="1.0" encoding="UTF-8" standalone="no"?>
<svg
   width="230"
   height="45"
   viewBox="0 0 230 45"
   version="1.1"
   id="svg45"
   sodipodi:docname="estadao-logo.svg"
   inkscape:version="1.1.2 (08b2f3d93c, 2022-04-05)"
   xmlns:inkscape="http://www.inkscape.org/namespaces/inkscape"
   xmlns:sodipodi="http://sodipodi.sourceforge.net/DTD/sodipodi-0.dtd"
   xmlns="http://www.w3.org/2000/svg"
   xmlns:svg="http://www.w3.org/2000/svg">
  <defs
     id="defs49" />
  <sodipodi:namedview
     id="namedview47"
     pagecolor="#ffffff"
     bordercolor="#666666"
     borderopacity="1.0"
     inkscape:pageshadow="2"
     inkscape:pageopacity="0.0"
     inkscape:pagecheckerboard="0"
     showgrid="false"
     width="230px"
     inkscape:zoom="5.6539924"
     inkscape:cx="131.5"
     inkscape:cy="25.026564"
     inkscape:window-width="1842"
     inkscape:window-height="1016"
     inkscape:window-x="78"
     inkscape:window-y="27"
     inkscape:window-maximized="1"
     inkscape:current-layer="svg45" />
  <path
     fill="#005f93"
     fill-rule="evenodd"
     d="m 191.80048,31.441475 -3.69885,-14.654957 -3.54571,14.654957 z m 5.86459,-29.6218947 c -1.53309,2.2695211 -3.67959,4.1477145 -6.47801,4.1477145 -1.26532,0 -1.59084,-0.1568919 -4.56164,-1.3299737 -0.70879,-0.2741098 -1.6486,-0.6456008 -2.45365,-0.6456008 -1.05356,0 -1.55234,0.4688721 -2.75991,1.6626925 L 178.99671,3.8736006 C 181.64287,0.70420578 183.4061,-4e-6 185.20783,-4e-6 c 1.32308,0 1.6486,0.15689181 4.77254,1.3498105 0.88205,0.371491 1.6486,0.6456008 2.47289,0.6456008 1.14982,0 1.85862,-0.9197105 2.68291,-1.93680229 l 2.52978,1.76097529 z m -4.77165,7.2783371 10.42624,35.9020756 h -8.18436 l -1.85861,-7.375719 h -10.27311 l -1.80261,7.375719 H 173.7849 L 184.76681,9.0979174 h 8.12748 z M 211.8873,26.53004 c 0,7.709339 0.76654,12.052717 4.83028,12.052717 4.12062,0 4.83029,-4.461498 4.83029,-12.052717 0,-7.53261 -0.65279,-12.110425 -4.83029,-12.110425 -4.06374,0 -4.83028,4.303705 -4.83028,12.110425 z m 18.1127,0 c 0,6.573225 -1.20757,18.469953 -13.28329,18.469953 -11.74845,0 -13.28242,-11.250225 -13.28242,-18.469953 0,-6.88701 1.36158,-18.5087249 13.28329,-18.5087249 C 228.3514,8.0213151 230,19.056038 230,26.53004 Z m -94.9134,4.911435 -3.68047,-14.654957 -3.56496,14.654957 z m 1.09206,-22.3435576 10.42712,35.9020756 h -8.16511 l -1.87873,-7.375719 h -10.25386 l -1.82011,7.375719 h -7.41782 l 10.9819,-35.9020756 z m 20.96888,29.6994386 h 1.37995 c 3.18169,0 7.68559,-0.371491 7.68559,-12.110425 0,-11.034723 -4.44702,-11.406214 -7.68559,-11.406214 h -1.37995 z M 149.13468,9.0979174 h 8.62539 c 5.59596,0 16.96201,0.038772 16.96201,17.7062326 0,6.730117 -2.03187,12.756025 -5.99935,15.710821 -3.2202,2.485022 -7.18681,2.485022 -9.98522,2.485022 h -9.60283 z m -27.61926,0 v 6.7301176 h -7.45545 v 29.171958 h -8.01198 V 15.828035 H 98.745684 V 9.0979174 Z M 40.077815,22.832263 c -0.01925,1.115374 -0.441026,2.152302 -1.09294,2.97373 l -0.0385,0.01983 c 0.230139,-0.742981 0.537282,-2.015248 0.537282,-2.152303 v -1.447192 c 0,-0.705111 -0.671165,-2.38764 -0.901304,-2.954795 l 0.01925,0.01984 0.0385,0.03877 c 0.364021,0.351654 0.67029,0.782656 0.91968,1.252431 l 0.0385,0.09738 c 0.268641,0.528383 0.421775,1.115375 0.460277,1.722204 l 0.01925,0.351654 z M 16.13814,15.143662 c -0.05775,-0.01984 -0.114632,-0.07845 -0.191637,-0.176729 a 4.2046254,4.3325582 0 0 1 -0.325519,-0.605927 c 0,-0.372393 0.785797,-0.33362 0.958182,-0.469773 0.172385,-0.137055 0.24939,-0.332719 0.517156,-0.450839 v 0.03967 l 0.01925,0.254273 a 2.9751772,3.065702 0 0 0 -0.07613,0.743884 c 0,0.351653 0.05688,0.841264 0.114632,0.958482 0,0 -0.383273,0.156892 -0.421775,0.195664 -0.210012,-0.195664 -0.364021,-0.391328 -0.59416,-0.488709 z m 0.077,-2.915122 3.123936,-3.5021135 2.01262,1.6825295 -0.077,0.254273 a 5.9591049,6.1404207 0 0 1 -0.248515,0.508546 c -0.09626,0.175827 -0.210888,0.332719 -0.326395,0.508545 a 5.4121973,5.5768726 0 0 1 -0.460277,0.508546 l -0.07613,0.07845 a 4.668403,4.8104471 0 0 1 -1.513841,0.939547 c -0.364895,0.117219 -0.708791,0.194764 -1.035185,0.194764 L 16.214269,12.22854 Z M 17.728981,6.4370684 V 5.5173579 c 0,-0.1568918 0.0385,-0.2344361 0.09625,-0.2930451 0.114632,-0.05951 0.230139,-0.1370549 0.32552,-0.2164025 l 0.09625,-0.097382 c 0.229264,0.039673 0.440152,0.019837 0.651039,-0.077544 0.077,-0.019837 0.230139,-0.098283 0.306268,-0.1568919 0.115507,-0.098283 0.15401,-0.2344359 0.173261,-0.3913278 l 0.306268,-0.019837 v 0.6068286 l -0.01925,0.078446 c -0.03763,0.1172181 -0.05688,0.234436 -0.05688,0.3516541 0,0.2939467 0.09626,0.5869917 0.267766,0.8024926 0.24939,0.3714909 0.671165,0.6068287 1.150694,0.6257638 0.03763,0.137055 0.01838,0.3723927 0,0.5283828 -0.01925,0.1568917 -0.192512,0.5869917 -0.24939,0.8214278 -0.134758,0.4310016 -0.268641,0.8611015 -0.24939,1.3110384 L 20.067124,8.9996346 20.373392,7.865325 20.585155,7.1025062 C 20.029497,6.9654512 19.569219,6.6327324 19.33908,6.2215677 19.051188,6.3000136 18.649539,6.4370684 18.534032,6.4370684 Z M 16.579166,5.243248 c -0.133883,-0.117218 -0.09626,-0.410263 0.133883,-0.9386457 0.077,-0.098283 0.210888,-0.2344361 0.287892,-0.312882 0.191637,0.097381 0.267766,0.097381 0.32552,0.1361533 0.05775,0.098283 0.09625,0.1767287 0.153134,0.234436 0.0385,0.05951 0.154009,0.039673 0.192511,0.05951 0.09538,0.2542729 0.248515,0.3128819 0.306268,0.3913279 -0.0385,0.078445 -0.460277,0.3128819 -0.613411,0.3714909 -0.153134,0.058609 -0.671165,0.1758271 -0.785797,0.05861 z M 15.984131,3.1495539 c -0.574035,-0.351654 -1.053563,-0.781754 -1.379082,-1.2515277 0.09626,-0.039673 0.191636,-0.078445 0.287017,-0.1370549 0.192511,-0.098283 0.364896,-0.2542729 0.556533,-0.4111648 0.153134,-0.1559901 0.287017,-0.3128819 0.383273,-0.46887202 0.267766,0.70330812 0.785796,1.40841952 1.494589,2.01434652 l -0.07613,0.1956639 v 0.078446 A 1.4088339,1.4517001 0 0 0 17.23108,3.6779367 4.8880411,5.036768 0 0 1 15.985006,3.1495539 Z m -1.550593,-1.5445727 -0.01925,-0.018935 c 0,0 -0.01925,-0.019837 -0.01925,-0.059511 -0.01925,-0.1361532 0.172385,-0.4499368 0.479529,-0.74298186 a 2.7914162,2.8763498 0 0 1 0.4209,-0.33271883 c 0.17326,-0.11721801 0.306268,-0.1568918 0.364896,-0.11721801 h 0.03763 l 0.01925,0.0387721 c 0,0.0396738 0,0.0784459 -0.01925,0.11721802 -0.03763,0.1568918 -0.210013,0.41116473 -0.459403,0.66543768 -0.326394,0.3336205 -0.690416,0.5283828 -0.805048,0.4508385 z m 3.257819,1.3498105 0.785797,0.05951 c 0,0 0.383273,0.2732081 0.421775,0.5085458 0.01925,0.097382 0,0.4102631 0,0.4887089 l -1.226823,0.019837 C 17.423591,3.5030113 17.557474,3.1116835 17.691357,2.9547917 Z m 0.862802,1.6834311 C 17.902245,4.6769949 17.941622,4.3046023 17.941622,4.3046023 l 1.111316,-0.018935 c 0,0 0.153135,0.312882 -0.498779,0.3516541 z m 1.610096,-1.3308754 c 0.09625,-0.097382 0.210012,-0.175827 0.34477,-0.254273 0.133883,0.1172181 0.326395,0.2930452 0.49878,0.4301 l 0.01925,0.019837 c 0.07613,0.058609 0.153134,0.117218 0.210012,0.137055 a 0.97130784,1.0008615 0 0 0 0.268641,-0.4508386 l 0.01925,-0.117218 c 0,-0.1559901 -0.077,-0.234436 -0.172386,-0.2732082 -0.09625,-0.058609 -0.230138,-0.098283 -0.383272,-0.175827 0,-0.078445 -0.05775,-0.1767286 -0.115507,-0.2542729 0.05775,-0.1767287 0.210887,-0.3913278 0.210887,-0.3913278 l 0.326398,-0.1956638 c 0.172385,-0.098283 0.325519,-0.1767287 0.383272,-0.2344361 0,0.2145991 -0.01925,0.351654 -0.01925,0.5076442 v 0.039674 L 21.73585,2.368702 v 0.4887092 h 0.28789 V 2.4273106 l 0.01838,-0.2741098 0.09626,-1.0766024 0.114632,-0.018935 0.210888,-0.039674 h 0.0385 l 0.172385,0.019837 c 0.01925,0.038772 -0.114632,0.7628188 -0.153134,0.8998737 l -0.133883,0.8998737 v 0.019837 h 0.267766 l 0.01925,0.019837 c 0.05775,-0.351654 0.115507,-0.6654377 0.192512,-0.9981565 0.07613,-0.293045 0.152259,-0.5680565 0.229263,-0.8412647 0.24939,0.038772 0.555658,0.098283 0.766546,0.1956639 l 0.01925,0.019837 c 0.172385,0.078446 0.326394,0.1559901 0.460277,0.2732081 l 0.07613,0.059511 c 0.09626,0.097382 0.192511,0.2145991 0.268641,0.3128818 l 0.325519,0.4688721 c 0.0385,0.059511 0.0385,0.1568918 0.09626,0.2551747 l 0.0385,0.1559901 0.0385,0.175827 v 0.019837 l -0.05775,0.019837 -0.24939,0.058609 a 4.2667541,4.3965773 0 0 1 -0.708792,0.078445 h -0.05776 l -0.32552,-0.019837 -0.01925,0.019837 A 1.9496161,2.0089365 0 0 1 23.249689,4.051231 c -0.210012,0.234436 -0.459402,0.410263 -0.689541,0.5085458 l -0.192511,0.078446 -0.113757,0.018935 0.01838,0.1767288 v 0.254273 l -0.230139,0.038772 V 4.8924956 L 22.02374,4.7942129 V 4.2072211 L 22.00449,3.9141761 V 3.6590015 h -0.268641 v 0.2542729 l -0.05775,0.078445 -0.32552,0.351654 -0.077,0.098283 -0.01925,0.018935 -0.03763,0.039674 -0.210887,0.2732081 a 2.804542,2.8898749 0 0 1 -0.24939,-0.175827 l -0.172385,-0.195664 -0.077,-0.117218 -0.07613,-0.1370549 -0.0385,-0.117218 -0.01925,-0.038772 -0.09626,-0.2164025 A 0.4130246,0.42559157 0 0 0 20.182647,3.619327 0.8312995,0.85659319 0 0 0 20.048764,3.502109 0.50490507,0.52026766 0 0 1 20.164271,3.306445 Z m 3.814352,9.8805766 0.172385,-0.175826 0.09626,-0.117219 0.01838,-0.03967 1.035186,0.861102 -3.162438,3.540885 -0.114632,-0.117217 -1.859485,-1.565312 a 9.688577,9.9833683 0 0 0 1.743978,-0.743884 10.001846,10.306169 0 0 0 1.820109,-1.388582 l 0.03938,-0.03967 0.114632,-0.136153 z m 2.241883,1.271366 0.01925,0.01984 -0.938931,0.742982 -2.28126,1.859258 -0.172386,-0.195664 2.339015,-2.641914 0.05688,-0.05861 0.01925,-0.01894 0.24939,-0.293946 z m 0.09626,1.271364 h -0.0385 l -2.051122,0.783557 -0.153135,0.07754 1.878737,-1.5058 0.09626,-0.07845 0.267766,0.724047 z m 14.25897,13.832628 c 0.09626,-0.351655 0.172385,-0.723145 0.24939,-1.017092 l 0.632663,-2.210912 0.900428,-3.09095 c 0.114632,-0.411164 0.172385,-0.841264 0.172385,-1.271364 0,-2.524696 -2.031871,-4.578716 -4.54152,-4.578716 -0.231014,0 -0.441901,0.01983 -0.652789,0.05861 a 3.0381809,3.1306227 0 0 1 -0.440151,-0.07845 l -0.210888,-0.05861 -0.154009,-0.05861 -0.306268,-0.117218 -0.49878,-0.234436 A 10.259111,10.571262 0 0 0 33.157903,16.16165 13.169534,13.570239 0 0 0 31.663314,16.06337 c -0.632662,0 -1.226823,0.05951 -1.820108,0.156892 a 10.325615,10.639789 0 0 0 -1.898863,0.528383 c -0.344771,0.117218 -0.631788,0.195664 -0.708792,0.195664 -0.402524,0 -0.441027,-0.411165 -0.91968,-0.411165 -0.153134,0 -0.460278,0.156893 -0.671165,0.234436 l 0.077,0.09919 c 0.84355,1.368746 1.533091,2.97283 1.993368,4.733804 l 0.01925,0.09828 0.05688,0.234437 -6.516513,2.641913 -1.16907,-2.857415 c 0,0 -1.207572,0.841265 -1.820108,1.213658 0.01838,0.332718 0.01838,0.8602 -0.02013,1.486865 -0.09625,1.956639 -0.459402,4.832989 -0.555658,5.731961 -0.09625,0.117218 -0.172385,0.216403 -0.325519,0.216403 -0.133883,0 -1.820108,-0.176729 -2.281261,-0.802492 l 0.268641,-4.264933 0.210888,-3.131525 2.222632,-5.321697 0.364897,-0.820527 0.651914,1.56441 2.682909,6.475845 5.807721,-2.308294 v -0.03967 l -0.01925,-0.01894 -0.01925,-0.07845 a 16.144711,16.635941 0 0 0 -2.108876,-4.950207 l -0.03763,-0.117217 c 0,-0.117219 -0.01925,-0.09828 0.01925,-0.137055 l 1.51384,-0.568057 -0.383272,-1.017092 0.383272,-0.312882 -0.114631,-0.09738 -0.364022,-0.312882 -0.595036,-0.489611 -0.708792,-0.58609 -0.325519,-0.275011 -0.115507,-0.07754 0.154009,-0.215501 0.32552,-0.468872 c 0.249389,-0.352556 0.460277,-0.724949 0.632662,-1.116276 0.114632,-0.234437 0.210013,-0.48871 0.287017,-0.723145 0.0385,-0.117218 0.077,-0.2344364 0.077,-0.2741102 0.09626,-0.3128819 0.153134,-0.6266655 0.191636,-0.9395475 0.0385,-0.175827 0.0385,-0.3714909 0.0385,-0.547318 v -0.078446 c 0,-0.351654 -0.09626,-0.6852745 -0.287893,-0.9783195 -0.05775,-0.098283 -0.114631,-0.195664 -0.210012,-0.2939468 L 25.606203,7.024962 A 0.90480388,0.93233407 0 0 0 25.414567,6.829298 1.5155903,1.5617047 0 0 0 24.974416,6.5551881 0.99055899,1.0206984 0 0 0 24.648022,6.3982964 l -0.01925,-0.312882 -0.191636,0.039674 A 5.1776833,5.3352231 0 0 0 23.91998,6.2621433 h -0.0385 c 0.05775,-0.3336205 0.441026,-0.3913278 0.574909,-0.5869917 0.0385,-0.019837 0.05775,-0.078446 0.05775,-0.1172181 0,-0.05951 -0.01925,-0.099185 -0.0385,-0.117218 -0.0385,-0.079348 -0.07613,-0.1181197 -0.07613,-0.2164025 l 0.01838,-0.097382 c 0.01925,-0.038772 0.0385,-0.058609 0.05775,-0.078446 l 0.077,-0.058609 0.09626,-0.058609 0.113756,-0.117218 c 0.326393,-0.332718 0.556532,-0.762818 0.651912,-1.2127549 l 0.01925,-0.1172179 0.01925,-0.1379566 a 1.813108,1.8682749 0 0 0 0,-0.4688721 l -0.0385,-0.1370549 C 25.318311,2.2118098 25.050546,1.7817099 24.648022,1.4291541 24.551766,1.3507083 24.438009,1.2533271 24.303251,1.194718 L 24.284,1.1550444 C 24.150117,1.0964353 23.977732,0.99905417 23.823722,0.95938038 l -0.07613,-0.0387721 -0.05775,-0.0198369 C 23.555959,0.86109766 23.402824,0.84126081 23.24969,0.80248864 A 2.8859219,2.973731 0 0 0 22.847166,0.76281484 L 22.5794,0.78265174 h -0.115506 l -0.07613,0.0198369 -0.230139,-0.0198369 h -0.24939 l -0.077,0.0973811 -0.01838,0.0396738 -0.173261,0.33271886 -0.01838,0.018935 -0.077,0.078445 C 21.314073,1.5653074 20.9308,1.6239163 20.853796,1.8195803 l -0.4209,0.8611015 c 0,0 -0.690417,0.7826558 -0.690417,0.8214279 0,0.1370549 0.01925,0.2155007 -0.09626,0.3128819 L 19.2437,3.6779367 C 19.22532,3.6193281 19.22532,3.4047286 19.20607,3.3452178 19.18682,3.3262827 18.70729,2.6996171 18.4579,2.719454 L 17.539095,2.6410076 C 16.675422,1.9377 16.216019,1.1153706 16.042759,0.25426892 V 0.2163985 L 16.024383,0.1767247 15.96663,0.07934358 C 15.88963,8.97677e-4 15.774993,-0.01893921 15.621859,0.02073457 a 1.1576939,1.1929187 0 0 0 -0.383273,0.13705491 3.3514496,3.4534231 0 0 0 -0.574909,0.43009996 l -0.154009,0.1568918 c -0.09626,0.13615324 -0.210013,0.27320816 -0.267766,0.39132786 -0.172385,0.2732081 -0.210888,0.5085458 -0.134758,0.664536 l 0.01925,0.019837 c 0.460277,0.8412646 1.379957,1.5851482 2.568278,2.035085 l 0.09626,0.038772 C 16.56079,4.1287752 16.407656,4.4028851 16.330651,4.6382228 H 15.199209 V 7.904097 l 0.01925,0.1370549 0.01925,0.1370549 0.01925,0.097381 c 0.03763,0.1370549 0.09626,0.2741098 0.172386,0.4111647 l 0.05688,0.078446 c 0.230139,0.3327188 0.613412,0.5680565 1.035187,0.6257638 l 0.230138,0.019837 h 1.571594 l -2.549027,2.8763497 c 0,0 0.747295,0.625764 1.015061,0.8602 -0.01838,0.03967 -0.287018,0.411165 -0.382398,0.469774 -0.192512,0.09828 -1.265326,0.195663 -1.188321,0.70421 0.01925,0.03967 0.01925,0.09828 0.05775,0.176728 0.05688,0.214599 0.32552,0.547317 0.440152,0.703309 0.172385,0.235337 0.537282,0.255174 0.671165,0.626665 -0.172386,0.117217 -0.364022,0.351653 -0.402524,0.528381 -0.402524,-0.468871 -1.265326,-1.56531 -1.629347,-2.328129 -1.303828,0.332718 -4.4653914,2.093694 -5.2896905,2.347966 -0.6904161,0.2146 -1.8026074,0.351655 -1.8026074,0.351655 0.058629,0.195664 0.1925115,0.450838 0.1732603,0.606828 0,0.07845 -0.2493898,0.155991 -0.5364069,0.332719 -0.134758,0.05861 -0.3062682,0.195664 -0.4217751,0.332719 0.1146318,0.821428 -0.133883,1.545475 -0.3062683,2.132467 -0.096256,0.234435 -0.1732603,0.468873 -0.2493898,0.724047 l -0.057753,0.234435 -0.1146319,0.548221 c -0.038502,0.254271 -0.057753,0.488708 -0.077005,0.742982 v 0.625764 c 0.019251,0.313783 0.057754,0.626664 0.096256,0.919709 l 0.037627,0.195665 0.057754,0.27411 c 0.096256,0.351653 0.2100125,0.665437 0.3255193,0.97832 l 0.057753,0.09738 0.019251,0.05951 v 0.01894 l 0.1146318,-0.01894 c 0.1925115,-0.0595 0.3832729,-0.156888 0.5565332,-0.25427 l 0.3447705,-0.255175 c 0.1146359,-0.07755 0.2100166,-0.175829 0.3255235,-0.293047 a 2.8176678,2.9034001 0 0 1 -0.8242991,1.036929 l -0.1916364,0.137055 -0.1531341,0.05861 c 0,0 -0.8628014,0.293045 -1.0351867,0.312882 C 4.9059707,26.392984 3.6030181,26.569713 2.6640872,26.90153 2.5109531,26.96104 2.2423121,26.608485 1.418013,26.68693 0.61296513,26.76538 -0.01882249,27.548032 4.2865638e-4,28.095351 0.01880475,28.64357 0.24894345,28.780625 0.32594804,29.093507 c 0.0962557,0.391329 0.72804336,3.853768 0.78579676,4.460597 0.057753,0.391328 0.057753,0.91971 0.057753,0.939547 0,0.03878 -0.134758,0.703309 -0.1540091,0.919712 v 0.117217 c 0,0.09739 0,0.195664 0.019251,0.293045 0.057753,0.450838 0.2878922,0.841265 0.5950354,1.036929 l 0.018376,0.05861 0.1531342,0.508546 c 0.3648967,0.91971 0.8628013,1.702366 1.4184594,2.269521 l 0.019251,-0.03878 1.2460742,-2.406576 0.019251,-0.01984 a 5.2678137,5.4280958 0 0 0 -1.0159346,-1.3498 l -0.1531341,-0.155991 -0.402524,-0.352556 0.019251,-0.09828 c 0,-0.48871 -0.2108876,-0.919712 -0.537282,-1.232593 L 2.2615633,33.90666 c 0,-0.09828 -0.1723853,-3.697778 -0.038502,-5.028653 0.268641,-0.03878 1.0351866,-0.254273 1.4184594,-0.54822 0.1155069,-0.07754 4.0829932,0.293947 4.2168762,0.313783 0.1146318,0 0.4410262,-0.156891 0.6711649,-0.156891 l 0.7472945,0.05861 c 0.267766,0 0.536407,-0.09738 0.7280437,-0.234436 0.210887,-0.176729 0.383272,-0.391327 0.441026,-0.665437 l 0.0385,-0.195665 v -0.254272 l -0.0385,-0.137055 a 0.7455444,0.76822885 0 0 0 -0.115507,-0.293045 8.6892674,8.9536531 0 0 0 0.632663,-0.254273 c 0.192511,-0.09828 0.383272,-0.216402 0.555658,-0.333621 a 4.2842551,4.4146108 0 0 0 1.073689,-1.154147 c 0.09626,-0.15599 0.192511,-0.312881 0.268641,-0.468872 -0.24939,1.017092 -0.882053,1.878194 -1.744854,2.445348 l 0.01925,0.254273 c 0,0.156892 -0.01925,0.312882 -0.03763,0.468872 a 1.93124,1.9900012 0 0 1 -0.460278,0.900776 c -0.268641,0.27411 -0.613411,0.508546 -1.0159351,0.606828 0.3255193,1.154147 1.0150601,3.169395 1.0150601,3.30645 0,0.449937 1.112191,2.602241 1.112191,2.641012 0,0.899874 0.268641,1.799748 0.364022,2.582403 0.0385,0.195665 0.05775,0.391329 0.05775,0.568057 0,0.15599 0.077,1.075701 0.133883,2.562566 0,0.137055 0.05775,0.156892 0.05775,0.312882 0,0.117218 -0.05775,0.234436 -0.133883,0.332719 l -0.01925,0.03877 -0.153134,0.195664 -0.192512,0.293947 a 4.2790048,4.4092008 0 0 0 -0.4209,0.724047 l -0.172385,0.37149 -0.077,0.156892 a 5.9267279,6.1070586 0 0 0 -0.441026,1.682534 h 2.933175 a 2.3363891,2.4074777 0 0 1 -0.05775,-0.528383 c -0.0385,-0.606829 0.114632,-1.291202 0.441027,-1.917867 0.172385,-0.371491 0.210012,-0.567156 0.459402,-0.841265 -0.0385,-0.254273 -0.05688,-0.724046 -0.230139,-1.271365 -0.153134,-0.528382 -0.67029,-1.388582 -0.67029,-1.408419 l -0.192511,-3.678843 c 0,-0.15599 0.250265,-1.428256 0.364897,-2.092792 0.01925,-0.03967 0.133883,-1.154146 0.574909,-1.976476 0.05775,-0.117218 -0.32552,-0.48961 -0.441026,-0.70421 l 0.077,-0.05861 h 0.05775 c 0.153134,0.137055 2.970801,0.978319 2.970801,0.978319 0,0 0.631788,-0.802492 0.881178,-0.959384 1.16907,-0.07754 2.415144,-0.234436 3.718971,-0.468872 1.916365,-0.351653 3.679595,-0.841265 5.174184,-1.389484 l 0.824299,-0.312881 0.0385,0.03877 v 0.156892 c 0,0.195664 0.01925,0.391327 0.0385,0.568057 0.07613,0.801591 0.287017,1.525637 0.594161,2.151401 0.133883,0.293045 0.306268,0.568057 0.478653,0.802492 l 0.0385,0.07755 a 3.8764808,3.9944293 0 0 0 -0.287017,0.822329 c -0.0385,0.175828 -0.05775,0.371492 -0.077,0.547318 -0.01925,0.234437 -0.01925,0.469774 0,0.685275 -2.01262,2.425511 -3.066183,4.264932 -3.316448,4.636424 l -0.01838,0.01984 c -0.402524,0.2155 -0.708792,0.724046 -0.708792,1.329973 0,0.176729 0.03763,0.333621 0.07613,0.489611 0.05775,0.175827 0.133883,0.351653 0.230139,0.488708 l -0.09626,0.509448 c -0.05688,0.351654 -0.09626,0.742981 -0.07613,1.13431 v 0.01984 c 0.0385,0.586091 0.153134,1.134311 0.34477,1.642856 0.0385,0.117218 0.09626,0.216403 0.153135,0.313783 l 2.223507,-1.83942 0.05775,-0.03878 a 4.567772,4.7067542 0 0 0 -0.364021,-0.782656 7.2909342,7.5127732 0 0 0 -0.460278,-0.782656 c 0.191637,-0.254272 0.441027,-0.528382 0.460278,-0.978319 l 0.01925,-0.195665 -0.01925,-0.176728 c -0.01925,-0.449937 -0.154009,-0.841264 -0.345646,-1.095538 0.268641,-0.488708 0.920555,-1.428257 1.131443,-1.682529 0.34477,-0.468872 0.977433,-1.115375 1.283701,-1.388583 0.172385,-0.156892 0.882052,-0.312882 0.997559,-0.351654 l 0.689541,-0.09919 0.785797,-0.136152 0.05688,-0.01984 -0.191637,-0.606828 -0.01925,-0.03877 a 4.0628669,4.1864865 0 0 1 0,-0.704211 c 0.0385,-0.156891 0.07701,-0.332718 0.115507,-0.468872 l 0.077,-0.137956 0.09538,-0.175827 0.0385,-0.03878 1.015061,-1.311039 -0.05688,-0.07845 -0.0385,-0.03877 a 9.8180847,10.116817 0 0 1 -1.072814,-1.702366 7.2655577,7.4866246 0 0 1 -0.364896,-0.91971 8.2342404,8.4847811 0 0 1 -0.32552,-1.212756 l -0.09625,-0.586992 -0.01838,-0.03967 -0.383272,-0.293045 A 5.3080661,5.469573 0 0 1 29.420556,25.924113 C 29.267422,25.689677 29.114288,25.454339 28.97953,25.200066 l -0.07613,-0.156892 0.09626,0.137055 a 4.9475446,5.098082 0 0 0 1.628472,1.487767 l 0.05775,0.03787 0.172385,0.07845 0.383273,0.195663 0.09626,0.528384 c 0.05688,0.254272 0.133883,0.508545 0.210012,0.762818 0.05775,0.216402 0.134758,0.431002 0.210888,0.645601 0.134758,0.352556 0.287892,0.665438 0.460277,0.998157 0.210888,0.37149 0.441027,0.724046 0.690417,1.056765 l 0.172385,0.234435 a 7.4379429,7.6642549 0 0 0 1.743979,1.585149 c 0.34477,0.214599 0.708792,0.4301 1.111316,0.58609 l 0.326394,0.117219 c 0.07613,0.372392 0.555658,0.880938 0.901304,1.174885 0.152259,0.137055 0.440151,0.332719 0.574034,0.508545 0.287892,0.468872 0.479529,0.998157 0.595036,1.428257 0.248514,0.821428 0.536407,2.347967 0.536407,2.503957 0,0.137055 0.05688,0.743883 0.05688,0.899873 0,0.137055 -0.421775,1.565312 -0.421775,1.722204 l -0.01838,0.03878 a 4.550271,4.6887207 0 0 0 -1.456962,1.878194 4.567772,4.7067542 0 0 0 -0.383273,1.350712 h 2.491273 c 0.05775,-0.391328 0.153135,-0.782657 0.306269,-1.173984 0.24939,-0.685275 0.614286,-1.291202 1.01681,-1.780812 0.09626,-0.117218 0.191637,-0.234436 0.306268,-0.332719 a 0.40252397,0.41477144 0 0 0 0.05775,-0.234436 v -0.03967 c 0,-0.410263 -0.230139,-1.095538 -0.383273,-1.5058 -0.05775,-0.156892 -0.154009,-0.312882 -0.154009,-0.469774 0,-0.137055 -0.248515,-3.090949 -0.248515,-3.209069 0.05688,-0.05861 0.517156,-1.545474 0.977433,-2.151401 -0.172385,-0.234437 -0.34477,-0.391328 -0.479528,-0.528383 -0.364022,-0.351654 -0.612537,-0.528382 -0.805048,-1.154146 -0.01925,-0.137055 -0.133883,-0.137055 -0.133883,-0.293947 0,-0.07845 0.01925,-0.117218 0.0385,-0.137055 a 3.2866957,3.386699 0 0 0 1.954867,0.645601 2.8605453,2.9475822 0 0 1 -1.035187,-2.93496 l 0.01925,-0.137055 z M 71.951589,9.0979174 V 15.280717 H 57.730242 v 8.295429 h 11.039657 v 6.181898 H 57.730242 v 8.843648 h 14.221347 v 6.398301 H 49.718265 V 9.0979174 Z m 19.377153,9.7831956 c -0.440151,-1.272266 -1.475337,-4.461498 -5.155807,-4.461498 -2.702161,0 -3.851979,1.839422 -3.851979,3.286613 0,2.465186 2.415144,3.345222 6.324877,4.793315 4.101369,1.565312 10.100726,3.756387 10.100726,11.034724 0,6.124191 -4.389261,11.465726 -13.01465,11.465726 -2.644407,0 -6.592642,-0.489611 -9.544193,-3.776224 C 74.136594,38.915476 73.48468,36.7244 73.043654,35.139253 l 7.034543,-1.917868 c 0.441027,1.604986 1.476213,5.361372 5.8646,5.361372 2.741538,0 4.677153,-1.506702 4.677153,-3.854669 0,-2.54273 -2.300512,-3.561625 -5.060426,-4.519206 -4.983422,-1.800649 -11.020406,-3.893441 -11.020406,-11.211452 0,-5.595807 3.660343,-10.9761149 11.691571,-10.9761149 9.104042,0 11.020406,5.9672979 11.786952,8.3351019 z M 0.72847201,9.7227796 c 0,0.1568919 0.15313412,1.2524294 0.28701709,1.8592574 0.1540091,0.586091 1.5138401,3.990823 1.6100958,4.557978 0.1155069,0.568057 0.038502,0.665438 0.096256,1.643758 0.4025239,0.195663 1.3799572,0.899873 1.8778618,0.899873 0.5180309,0 1.7256028,-1.154147 2.2427586,-1.291202 0,-1.428255 -0.3640217,-1.56531 -0.2301387,-2.308292 0.1531341,-0.880939 0.5950354,-1.780813 0.8820525,-2.485023 0.2870171,-0.70421 0.076129,-0.939547 0.1146318,-1.154147 0,0 0.3263944,0.410264 0.2301387,1.055864 -0.133883,0.782657 -0.7857968,1.976477 -0.8628014,2.504859 -0.096256,0.528383 -0.056878,1.13431 0.1347581,1.251529 1.6862254,-0.175828 2.9515507,-0.703309 4.0436157,-1.310137 1.111316,-0.606829 2.031871,-1.095538 2.970802,-1.487768 C 13.933884,12.794793 12.534675,10.701099 11.864385,9.8986067 11.173969,9.0961141 10.312043,8.2359142 9.2191026,7.5903134 8.1270376,6.9447126 6.2097984,6.5921569 4.8105901,6.7292118 3.4113817,6.8662667 2.0506757,7.2774315 2.0506757,7.2774315 c 0,0 -0.8811775,-0.742982 -1.55234239,-0.5076442 L 0.90085728,7.8067159 0.0380559,8.3152618 c 0,0 0.69041611,1.2713646 0.69041611,1.4084195 z"
     id="path43"
     style="stroke-width:0.888265" />
</svg>
