<?xml version="1.0" encoding="UTF-8" standalone="no"?>
<svg
   viewBox="0 0 230 30"
   height="30"
   width="230"
   xml:space="preserve"
   id="svg2"
   version="1.1"
   sodipodi:docname="spacex-logo.svg"
   inkscape:version="1.1.2 (08b2f3d93c, 2022-04-05)"
   xmlns:inkscape="http://www.inkscape.org/namespaces/inkscape"
   xmlns:sodipodi="http://sodipodi.sourceforge.net/DTD/sodipodi-0.dtd"
   xmlns="http://www.w3.org/2000/svg"
   xmlns:svg="http://www.w3.org/2000/svg"
   xmlns:rdf="http://www.w3.org/1999/02/22-rdf-syntax-ns#"
   xmlns:cc="http://creativecommons.org/ns#"
   xmlns:dc="http://purl.org/dc/elements/1.1/"><sodipodi:namedview
     id="namedview16"
     pagecolor="#ffffff"
     bordercolor="#666666"
     borderopacity="1.0"
     inkscape:pageshadow="2"
     inkscape:pageopacity="0.0"
     inkscape:pagecheckerboard="0"
     showgrid="false"
     width="230px"
     inkscape:zoom="0.79924242"
     inkscape:cx="408.51185"
     inkscape:cy="168.28436"
     inkscape:window-width="1842"
     inkscape:window-height="1016"
     inkscape:window-x="78"
     inkscape:window-y="27"
     inkscape:window-maximized="1"
     inkscape:current-layer="svg2" /><metadata
     id="metadata8"><rdf:RDF><cc:Work
         rdf:about=""><dc:format>image/svg+xml</dc:format><dc:type
           rdf:resource="http://purl.org/dc/dcmitype/StillImage" /></cc:Work></rdf:RDF></metadata><defs
     id="defs6" /><g
     transform="matrix(1.2777778,0,0,-1.3511079,-276.00001,550.03873)"
     id="g10"><g
       transform="scale(0.1)"
       id="g12"><path
         id="path14"
         style="fill:#224f8c;fill-opacity:1;fill-rule:nonzero;stroke:none"
         d="m 2579.68,3939.11 c 0,-9.23 -5.98,-10.86 -19.55,-10.86 h -91.75 l -4.34,3.8 v 28.77 l 3.8,3.81 h 92.29 c 13.03,0 19.55,-1.64 19.55,-10.86 z m 0,49.94 h -152.02 l -5.43,-4.34 v -135.18 h 41.81 v 51.03 l 3.8,3.8 h 111.84 c 28.23,0 41.26,7.6 41.26,27.15 v 30.94 c 0,19 -13.03,26.6 -41.26,26.6" /><path
         id="path16"
         style="fill:#224f8c;fill-opacity:1;fill-rule:nonzero;stroke:none"
         d="m 2698.03,3963.54 36.38,-53.21 -2.18,-4.88 h -80.35 l -20.63,-25.52 h 119.45 l 8.68,-4.89 18.46,-25.51 h 48.32 l -105.87,141.15 -22.26,-27.14" /><path
         id="path18"
         style="fill:#224f8c;fill-opacity:1;fill-rule:nonzero;stroke:none"
         d="m 3177.43,3876.67 v 38.01 l 4.34,3.79 h 80.9 v 23.89 h -128.13 v -92.83 h 188.94 v 23.88 h -141.16 l -4.89,3.26" /><path
         id="path20"
         style="fill:#224f8c;fill-opacity:1;fill-rule:nonzero;stroke:none"
         d="m 3134.54,3989.05 h 190.56 v -26.06 h -190.56 v 26.06" /><path
         id="path22"
         style="fill:#224f8c;fill-opacity:1;fill-rule:nonzero;stroke:none"
         d="m 2922.26,3964.08 h 153.64 c -2.17,19.55 -14.65,24.97 -45.06,24.97 h -110.21 c -34.75,0 -45.61,-6.51 -45.61,-33.11 v -73.84 c 0,-26.06 10.86,-33.12 45.61,-33.12 h 110.21 c 30.95,0 42.89,5.97 43.98,26.06 h -152.56 l -4.34,4.35 v 81.43 l 4.34,3.26" /><path
         id="path24"
         style="fill:#224f8c;fill-opacity:1;fill-rule:nonzero;stroke:none"
         d="m 2319.07,3934.76 h -111.29 l -3.26,3.81 v 23.88 l 3.26,2.71 h 150.38 l 2.18,4.89 c -4.89,13.03 -18.46,19.55 -42.89,19.55 h -104.79 c -34.75,0 -45.6,-6.52 -45.6,-33.12 v -15.75 c 0,-26.05 10.85,-33.11 45.6,-33.11 h 111.3 l 3.26,-3.26 v -24.97 l -2.71,-3.8 h -127.59 v 0 h -33.12 c 0,0 -3.8,-2.18 -3.8,-2.72 2.71,-18.46 15.2,-23.34 45.06,-23.34 h 114.01 c 34.75,0 46.15,6.51 46.15,33.11 v 19 c 0,26.06 -11.4,33.12 -46.15,33.12" /><path
         id="path26"
         style="fill:#224f8c;fill-opacity:1;fill-rule:nonzero;stroke:none"
         d="m 3445.09,3989.6 h -62.98 l -3.26,-6.52 69.49,-51.03 c 13.04,7.6 27.69,15.2 42.9,22.8 l -46.15,34.75" /><path
         id="path28"
         style="fill:#224f8c;fill-opacity:1;fill-rule:nonzero;stroke:none"
         d="m 3501.55,3894.04 61.35,-44.51 h 62.98 l 2.71,5.97 -91.2,66.78 c -11.95,-9.24 -24.44,-18.46 -35.84,-28.24" /><path
         id="path30"
         style="fill:#a5a7a9;fill-opacity:1;fill-rule:nonzero;stroke:none"
         d="m 3435.86,3849.53 h -57.01 l -4.89,7.6 c 38.54,37.45 211.11,196.98 586.04,213.89 h -0.08 c -11.88,-0.49 -318.06,-14.96 -524.06,-221.49" /></g></g></svg>
