<?xml version="1.0" encoding="UTF-8" standalone="no"?>
<svg
   width="120"
   height="150"
   viewBox="0 0 120 149.00662"
   version="1.1"
   id="svg5"
   sodipodi:docname="avatar-purple.svg"
   inkscape:version="1.1.2 (08b2f3d93c, 2022-04-05)"
   xmlns:inkscape="http://www.inkscape.org/namespaces/inkscape"
   xmlns:sodipodi="http://sodipodi.sourceforge.net/DTD/sodipodi-0.dtd"
   xmlns="http://www.w3.org/2000/svg"
   xmlns:svg="http://www.w3.org/2000/svg">
  <defs
     id="defs9" />
  <sodipodi:namedview
     id="namedview7"
     pagecolor="#ffffff"
     bordercolor="#666666"
     borderopacity="1.0"
     inkscape:pageshadow="2"
     inkscape:pageopacity="0.0"
     inkscape:pagecheckerboard="0"
     showgrid="false"
     width="120px"
     inkscape:zoom="5.589404"
     inkscape:cx="86.234597"
     inkscape:cy="71.832346"
     inkscape:window-width="1836"
     inkscape:window-height="1016"
     inkscape:window-x="84"
     inkscape:window-y="27"
     inkscape:window-maximized="1"
     inkscape:current-layer="svg5" />
  <g
     id="surface1"
     transform="matrix(0.96383992,0,0,1.085695,-8.3827248,-6.2557476)"
     style="fill:#8979f2;fill-opacity:1">
    <path
       style="fill:#8979f2;fill-opacity:1;fill-rule:nonzero;stroke:none"
       d="m 66.394531,5.640625 c -6.972656,1.136719 -11.835937,3.375 -16.324219,7.605469 -3.140624,2.957031 -6.109374,7.914062 -7.695312,12.902344 -1.3125,4.195312 -1.070312,10.558593 0.621094,16.339843 0.171875,0.550781 0.136718,0.621094 -0.242188,0.242188 -0.242187,-0.207031 -0.863281,-0.414063 -1.414062,-0.414063 -0.828125,0 -1,0.207032 -1.484375,1.789063 -0.6875,2.410156 -0.65625,4.917969 0.171875,7.601562 1.417968,4.507813 3.453125,8.292969 6.386718,11.769531 1.378907,1.613282 1.484376,1.855469 1.65625,4.46875 0.273438,3.511719 1.277344,6.195313 3.207032,8.429688 1.65625,1.929688 1.761718,2.476562 1.3125,6.777344 l -0.207032,2.03125 -1.691406,0.621094 C 48.277344,86.628906 46.757812,88.3125 46,90.859375 l -0.621094,2.097656 -5.246094,1.308594 c -18.460937,4.644531 -27.15625,13.761715 -30.296874,31.789065 -0.554688,3.33593 -1.382813,16.10156 -1.070313,16.92578 0.171875,0.41406 8.589844,0.48437 62.320313,0.48437 h 62.113282 v -4.0625 c 0,-7.42968 -0.96485,-14.75781 -2.6211,-20.36718 -4.14062,-13.65625 -13.56249,-21.500004 -30.5039,-25.250004 -2.933595,-0.65625 -3.660158,-0.929687 -3.73047,-1.445312 -0.585938,-3.507813 -2.585938,-6.019532 -5.414062,-6.710938 l -1.554688,-0.375 v -7.226562 l 1.378906,-1.546875 c 1.863282,-2.101563 2.832032,-4.785157 3.039063,-8.359375 l 0.171875,-2.925782 1.65625,-1.824218 C 98.691406,60 101.66016,54.082031 102.45313,49.679688 c 0.3789,-2.066407 0.0352,-5.367188 -0.69141,-6.742188 -0.37891,-0.722656 -1.6875,-0.828125 -2.308595,-0.207031 -0.589844,0.582031 -0.554687,0.171875 0.273437,-3.339844 0.968748,-4.023437 0.968748,-9.390625 0,-12.898437 C 98.175781,20.984375 94.515625,15.136719 90.546875,11.902344 84.476562,6.914062 74.46875,4.335938 66.394531,5.640625 Z m 0,0"
       id="path2" />
  </g>
</svg>
