<?xml version="1.0" encoding="utf-8"?>
<!-- Generator: Adobe Illustrator 24.1.2, SVG Export Plug-In . SVG Version: 6.00 Build 0)  -->
<svg version="1.1" id="Layer_1" xmlns="http://www.w3.org/2000/svg" xmlns:xlink="http://www.w3.org/1999/xlink" x="0px" y="0px"
	 viewBox="0 0 122.9 96.2" style="enable-background:new 0 0 122.9 96.2;" xml:space="preserve">
<style type="text/css">
	.st0{fill:#8979F2;stroke:#FFFFFF;stroke-miterlimit:10;}
</style>
<g>
	<path class="st0" d="M0,42.9h24.8v44.2H0V42.9L0,42.9L0,42.9z M53.5,17.3v-6.1c0-0.5-0.3-0.6-0.8-0.6h-1.2V8.9h2.5V6.9h1.4v2.1h1.1
		V6.9h1.4V9c0.3,0,0.6,0,0.9,0c1.3,0.1,2.2,0.3,2.8,1.6c0.2,0.4,0.3,0.7,0.3,1.1c0,0.5-0.1,0.8-0.4,1.2c-0.2,0.4-0.6,0.7-1,0.9
		c3.4,0.4,2.8,5.3-0.8,5.7c-0.3,0-1,0.1-1.8,0.1v2.1h-1.4v-2h-1.1v2h-1.4v-2h-2.5l0.3-1.6h1.1C53.5,18,53.6,17.7,53.5,17.3
		L53.5,17.3L53.5,17.3L53.5,17.3z M58.2,10.9v2.4C59.9,12.8,59.8,11.3,58.2,10.9L58.2,10.9L58.2,10.9z M58.2,14.7v3
		c0.2,0,0.3,0,0.5-0.1c1.7-0.3,2.1-2.4,0.1-2.8C58.5,14.8,58.3,14.7,58.2,14.7L58.2,14.7L58.2,14.7L58.2,14.7z M56.7,17.7v-3.1h-0.6
		v3.1H56.7L56.7,17.7L56.7,17.7z M56.7,13.4v-2.6h-0.6v2.6H56.7L56.7,13.4L56.7,13.4z M82.1,40.1v-6.9c0-0.5-0.3-0.7-0.9-0.7h-1.3
		v-1.9h2.9v-2.3h1.6v2.3h1.3v-2.3h1.6v2.4c0.4,0,0.7,0,1,0c1.5,0.1,2.5,0.3,3.2,1.8c0.2,0.4,0.3,0.8,0.3,1.3c0,0.6-0.1,0.9-0.4,1.3
		c-0.3,0.5-0.7,0.8-1.2,1c3.9,0.5,3.2,6-0.9,6.4c-0.3,0-1.2,0.1-2,0.1V45h-1.6v-2.3h-1.3V45h-1.6v-2.3h-2.9l0.4-1.8h1.3
		C82,40.9,82.1,40.6,82.1,40.1L82.1,40.1L82.1,40.1L82.1,40.1z M87.3,32.9v2.7C89.2,35.1,89.1,33.4,87.3,32.9L87.3,32.9L87.3,32.9z
		 M87.3,37.2v3.3c0.2,0,0.4,0,0.5-0.1c2-0.4,2.4-2.7,0.1-3.2C87.7,37.3,87.5,37.2,87.3,37.2L87.3,37.2L87.3,37.2L87.3,37.2z
		 M85.6,40.6v-3.5H85v3.5H85.6L85.6,40.6L85.6,40.6z M85.6,35.7v-3H85v3L85.6,35.7L85.6,35.7L85.6,35.7z M85.4,20.5
		c9,0,16.3,7.3,16.3,16.3c0,9-7.3,16.3-16.3,16.3c-9,0-16.3-7.3-16.3-16.3C69.1,27.8,76.3,20.5,85.4,20.5L85.4,20.5L85.4,20.5z
		 M56.7,0c7.8,0,14.1,6.3,14.1,14.1c0,7.8-6.3,14.1-14.1,14.1c-7.8,0-14.1-6.3-14.1-14.1C42.6,6.3,48.9,0,56.7,0L56.7,0L56.7,0z
		 M85.4,23.7c7.2,0,13.1,5.9,13.1,13.1c0,7.2-5.9,13.1-13.1,13.1c-7.2,0-13.1-5.9-13.1-13.1C72.3,29.6,78.1,23.7,85.4,23.7
		L85.4,23.7L85.4,23.7z M29.8,83.4V46.5h16.6c7,1.3,14.1,5.1,21.1,9.5h12.9c5.8,0.3,8.9,6.3,3.2,10.2c-4.5,3.3-10.5,3.1-16.6,2.6
		c-4.2-0.2-4.4,5.5,0,5.5c1.5,0.1,3.2-0.2,4.6-0.2c7.6,0,13.9-1.5,17.8-7.5l1.9-4.5l19.2-9.5c9.6-3.2,16.4,6.9,9.3,13.9
		c-13.9,10.1-28.2,18.4-42.7,25.2c-10.6,6.4-21.2,6.2-31.8,0L29.8,83.4L29.8,83.4L29.8,83.4z"/>
</g>
</svg>
