<?xml version="1.0" encoding="UTF-8" standalone="no"?>
<svg
   version="1.1"
   width="24"
   height="24"
   viewBox="0 0 24 24"
   id="svg20"
   sodipodi:docname="card-two.svg"
   inkscape:version="1.1.2 (08b2f3d93c, 2022-04-05)"
   xmlns:inkscape="http://www.inkscape.org/namespaces/inkscape"
   xmlns:sodipodi="http://sodipodi.sourceforge.net/DTD/sodipodi-0.dtd"
   xmlns="http://www.w3.org/2000/svg"
   xmlns:svg="http://www.w3.org/2000/svg">
  <defs
     id="defs24" />
  <sodipodi:namedview
     id="namedview22"
     pagecolor="#ffffff"
     bordercolor="#666666"
     borderopacity="1.0"
     inkscape:pageshadow="2"
     inkscape:pageopacity="0.0"
     inkscape:pagecheckerboard="0"
     showgrid="false"
     inkscape:zoom="35.166667"
     inkscape:cx="5.2748815"
     inkscape:cy="12.014218"
     inkscape:window-width="1842"
     inkscape:window-height="1016"
     inkscape:window-x="78"
     inkscape:window-y="27"
     inkscape:window-maximized="1"
     inkscape:current-layer="svg20" />
  <path
     d="M12,6C13.11,6 14,5.1 14,4C14,3.62 13.9,3.27 13.71,2.97L12,0L10.29,2.97C10.1,3.27 10,3.62 10,4A2,2 0 0,0 12,6M16.6,16L15.53,14.92L14.45,16C13.15,17.29 10.87,17.3 9.56,16L8.5,14.92L7.4,16C6.75,16.64 5.88,17 4.96,17C4.23,17 3.56,16.77 3,16.39V21A1,1 0 0,0 4,22H20A1,1 0 0,0 21,21V16.39C20.44,16.77 19.77,17 19.04,17C18.12,17 17.25,16.64 16.6,16M18,9H13V7H11V9H6A3,3 0 0,0 3,12V13.54C3,14.62 3.88,15.5 4.96,15.5C5.5,15.5 6,15.3 6.34,14.93L8.5,12.8L10.61,14.93C11.35,15.67 12.64,15.67 13.38,14.93L15.5,12.8L17.65,14.93C18,15.3 18.5,15.5 19.03,15.5C20.11,15.5 21,14.62 21,13.54V12A3,3 0 0,0 18,9Z"
     id="path18"
     style="fill:#35f29a;fill-opacity:1" />
</svg>
