<?xml version="1.0" encoding="UTF-8" standalone="no"?>
<svg
   version="1.1"
   width="24"
   height="24"
   viewBox="0 0 24 24"
   id="svg4"
   sodipodi:docname="exchange-one.svg"
   inkscape:version="1.1.2 (08b2f3d93c, 2022-04-05)"
   xmlns:inkscape="http://www.inkscape.org/namespaces/inkscape"
   xmlns:sodipodi="http://sodipodi.sourceforge.net/DTD/sodipodi-0.dtd"
   xmlns="http://www.w3.org/2000/svg"
   xmlns:svg="http://www.w3.org/2000/svg">
  <defs
     id="defs8" />
  <sodipodi:namedview
     id="namedview6"
     pagecolor="#ffffff"
     bordercolor="#666666"
     borderopacity="1.0"
     inkscape:pageshadow="2"
     inkscape:pageopacity="0.0"
     inkscape:pagecheckerboard="0"
     showgrid="false"
     inkscape:zoom="35.166667"
     inkscape:cx="11.985782"
     inkscape:cy="12.014218"
     inkscape:window-width="1842"
     inkscape:window-height="1016"
     inkscape:window-x="78"
     inkscape:window-y="27"
     inkscape:window-maximized="1"
     inkscape:current-layer="svg4" />
  <path
     d="M4.93 4.92L6.34 6.33C9.46 3.2 14.53 3.2 17.66 6.33L19.07 4.92C15.17 1 8.84 1 4.93 4.92M7.76 7.75L9.17 9.16C10.73 7.6 13.26 7.6 14.83 9.16L16.24 7.75C13.9 5.41 10.1 5.41 7.76 7.75M18 11H6C4.89 11 4 11.9 4 13V21C4 22.11 4.89 23 6 23H18C19.11 23 20 22.11 20 21V13C20 11.9 19.11 11 18 11M18 17H6V14H18V17Z"
     id="path2"
     style="fill:#35f29a;fill-opacity:1" />
</svg>
