<?xml version="1.0" encoding="UTF-8" standalone="no"?>
<svg
   version="1.1"
   width="24"
   height="24"
   viewBox="0 0 24 24"
   id="svg12"
   sodipodi:docname="exchange-three.svg"
   inkscape:version="1.1.2 (08b2f3d93c, 2022-04-05)"
   xmlns:inkscape="http://www.inkscape.org/namespaces/inkscape"
   xmlns:sodipodi="http://sodipodi.sourceforge.net/DTD/sodipodi-0.dtd"
   xmlns="http://www.w3.org/2000/svg"
   xmlns:svg="http://www.w3.org/2000/svg">
  <defs
     id="defs16" />
  <sodipodi:namedview
     id="namedview14"
     pagecolor="#ffffff"
     bordercolor="#666666"
     borderopacity="1.0"
     inkscape:pageshadow="2"
     inkscape:pageopacity="0.0"
     inkscape:pagecheckerboard="0"
     showgrid="false"
     inkscape:zoom="35.166667"
     inkscape:cx="11.985782"
     inkscape:cy="12.014218"
     inkscape:window-width="1842"
     inkscape:window-height="1016"
     inkscape:window-x="78"
     inkscape:window-y="27"
     inkscape:window-maximized="1"
     inkscape:current-layer="svg12" />
  <path
     d="M19.83 7.5L17.56 5.23C17.63 4.81 17.74 4.42 17.88 4.08C17.96 3.9 18 3.71 18 3.5C18 2.67 17.33 2 16.5 2C14.86 2 13.41 2.79 12.5 4H7.5C4.46 4 2 6.46 2 9.5S4.5 21 4.5 21H10V19H12V21H17.5L19.18 15.41L22 14.47V7.5H19.83M13 9H8V7H13V9M16 11C15.45 11 15 10.55 15 10S15.45 9 16 9C16.55 9 17 9.45 17 10S16.55 11 16 11Z"
     id="path10"
     style="fill:#35f29a;fill-opacity:1" />
</svg>
