<?xml version="1.0" encoding="UTF-8" standalone="no"?>
<svg
   version="1.1"
   width="24"
   height="24"
   viewBox="0 0 24 24"
   id="svg4"
   sodipodi:docname="info-three.svg"
   inkscape:version="1.1.2 (08b2f3d93c, 2022-04-05)"
   xmlns:inkscape="http://www.inkscape.org/namespaces/inkscape"
   xmlns:sodipodi="http://sodipodi.sourceforge.net/DTD/sodipodi-0.dtd"
   xmlns="http://www.w3.org/2000/svg"
   xmlns:svg="http://www.w3.org/2000/svg">
  <defs
     id="defs8" />
  <sodipodi:namedview
     id="namedview6"
     pagecolor="#ffffff"
     bordercolor="#666666"
     borderopacity="1.0"
     inkscape:pageshadow="2"
     inkscape:pageopacity="0.0"
     inkscape:pagecheckerboard="0"
     showgrid="false"
     inkscape:zoom="35.166667"
     inkscape:cx="5.2748815"
     inkscape:cy="12.014218"
     inkscape:window-width="1842"
     inkscape:window-height="1016"
     inkscape:window-x="78"
     inkscape:window-y="27"
     inkscape:window-maximized="1"
     inkscape:current-layer="svg4" />
  <path
     d="M16 12C18.76 12 21 9.76 21 7S18.76 2 16 2 11 4.24 11 7 13.24 12 16 12M21.45 17.6C21.06 17.2 20.57 17 20 17H13L10.92 16.27L11.25 15.33L13 16H15.8C16.15 16 16.43 15.86 16.66 15.63S17 15.12 17 14.81C17 14.27 16.74 13.9 16.22 13.69L8.95 11H7V20L14 22L22.03 19C22.04 18.47 21.84 18 21.45 17.6M5 11H.984V22H5V11Z"
     id="path2"
     style="fill:#8979f2;fill-opacity:1" />
</svg>
