<?xml version="1.0" encoding="utf-8"?>
<!-- Generator: Adobe Illustrator 25.2.0, SVG Export Plug-In . SVG Version: 6.00 Build 0)  -->
<svg version="1.1" id="Layer_1" xmlns="http://www.w3.org/2000/svg" xmlns:xlink="http://www.w3.org/1999/xlink" x="0px" y="0px"
	 viewBox="0 0 33.5 558.5" style="enable-background:new 0 0 33.5 558.5;" xml:space="preserve">
<style type="text/css">
	.st0{fill:#35F29A;}
	.st1{fill:none;stroke:#35F29A;stroke-width:1.5;stroke-miterlimit:10;}
</style>
<g>
	<rect x="14.2" y="258.5" class="st0" width="5" height="300"/>
	<rect x="14.2" class="st0" width="5" height="200"/>
</g>
<circle class="st1" cx="16.8" cy="230" r="16"/>
<polygon class="st0" points="16.8,234.3 14.2,230 11.8,225.7 16.8,225.7 21.8,225.7 19.2,230 "/>
<polygon class="st0" points="16.8,324.3 13,317.8 9.2,311.3 16.8,311.3 24.2,311.3 20.5,317.8 "/>
<polygon class="st0" points="16.8,427.3 13,420.8 9.2,414.3 16.8,414.3 24.2,414.3 20.5,420.8 "/>
<polygon class="st0" points="16.8,530.3 13,523.8 9.2,517.3 16.8,517.3 24.2,517.3 20.5,523.8 "/>
</svg>
