<?xml version="1.0" encoding="UTF-8" standalone="no"?>
<svg
   viewBox="0 0 1440 168"
   version="1.1"
   id="svg4"
   sodipodi:docname="wave.svg"
   inkscape:version="1.1.2 (08b2f3d93c, 2022-04-05)"
   width="1440"
   height="168"
   xmlns:inkscape="http://www.inkscape.org/namespaces/inkscape"
   xmlns:sodipodi="http://sodipodi.sourceforge.net/DTD/sodipodi-0.dtd"
   xmlns="http://www.w3.org/2000/svg"
   xmlns:svg="http://www.w3.org/2000/svg">
  <defs
     id="defs8" />
  <sodipodi:namedview
     id="namedview6"
     pagecolor="#ffffff"
     bordercolor="#666666"
     borderopacity="1.0"
     inkscape:pageshadow="2"
     inkscape:pageopacity="0.0"
     inkscape:pagecheckerboard="0"
     showgrid="false"
     inkscape:zoom="1.1233308"
     inkscape:cx="597.77582"
     inkscape:cy="83.234608"
     inkscape:window-width="1842"
     inkscape:window-height="1016"
     inkscape:window-x="78"
     inkscape:window-y="27"
     inkscape:window-maximized="1"
     inkscape:current-layer="svg4"
     height="319px" />
  <rect
     style="fill:#f2f2f2;fill-opacity:1;stroke-width:1.03819"
     id="rect1373"
     width="1473.1002"
     height="179.74969"
     x="-15.261559"
     y="-1.4093235" />
  <path
     fill="#0099ff"
     fill-opacity="1"
     d="M -10.656362,136 38.065102,120 C 86.786563,104 184.22949,72.000008 281.67242,45.300008 c 97.44293,-26.3 194.88586,-48.2999996 292.32878,-32 97.44293,15.7 194.88585,69.7 292.32878,85.399996 97.44292,16.299996 194.88592,-5.7 292.32872,0 C 1256.1017,104 1353.5446,136 1402.2661,152 l 48.7214,16 v 0 h -48.7214 c -48.7215,0 -146.1644,0 -243.6074,0 -97.4428,0 -194.8858,0 -292.32872,0 -97.44293,0 -194.88585,0 -292.32878,0 -97.44292,0 -194.88585,0 -292.32878,0 -97.44293,0 -194.885857,0 -243.607318,0 h -48.721464 z"
     id="path2"
     style="fill:#ffffff;fill-opacity:1;stroke-width:1.00749" />
</svg>
